<svg xmlns="http://www.w3.org/2000/svg" width="115" height="64" viewBox="0 0 115 64" fill="none"><path fill-rule="evenodd" clip-rule="evenodd" d="M59.0681 7.11713C52.6972 2.37238 43.7171 0 32.128 0H0.455071C0.15169 0 0 0.15015 0 0.450451V63.4236C0 63.7239 0.15169 63.874 0.455071 63.874H32.128C43.7171 63.874 52.6972 61.5016 59.0681 56.7569C64.0646 53.0709 67.1204 47.6088 68.2353 40.3706H79.2389V58.8391C79.2389 59.1394 79.3906 59.2895 79.694 59.2895H95.1664C95.4698 59.2895 95.6214 59.1394 95.6214 58.8391V40.3706H114.279C114.583 40.3706 114.734 40.2204 114.734 39.9201V24.6048C114.734 24.3045 114.583 24.1543 114.279 24.1543H95.6214V5.6858C95.6214 5.3855 95.4698 5.23535 95.1664 5.23535H87.4302H79.694C79.3906 5.23535 79.2389 5.3855 79.2389 5.6858V24.1543H68.3297C67.3005 16.5919 64.2133 10.9128 59.0681 7.11713ZM68.3297 24.1543H60.581C60.2776 24.1543 60.126 24.3045 60.126 24.6048V39.9201C60.126 40.2204 60.2776 40.3706 60.581 40.3706H68.2353C68.5555 38.2915 68.7156 36.0659 68.7156 33.6938V30.1803C68.7156 28.0539 68.587 26.0452 68.3297 24.1543ZM43.8688 19.7298C46.4779 22.1322 47.7824 25.916 47.7824 31.0812V32.7929C47.7824 37.958 46.4779 41.7719 43.8688 44.2343C41.3204 46.6367 37.4068 47.838 32.128 47.838H20.9332V16.0361H32.128C37.4068 16.0361 41.3204 17.2673 43.8688 19.7298Z" fill="#BD97F1"></path></svg>